<svg width="21" height="13" viewBox="0 0 21 13" fill="none" xmlns="http://www.w3.org/2000/svg">
<path d="M0.00513102 9.3008C0.0872224 8.99296 0.14366 8.67485 0.251405 8.37727C0.743953 6.99198 2.09333 6.01714 3.56584 5.98636C4.21744 5.97097 4.87931 5.9761 5.52578 6.02741C6.22355 6.08897 6.83411 6.39682 7.36257 6.85345C7.48058 6.95606 7.5678 6.98685 7.71659 6.89963C8.33228 6.55587 9.0044 6.38142 9.71244 6.37629C10.2871 6.37116 10.8566 6.37629 11.4312 6.38656C12.1033 6.39682 12.7344 6.57639 13.3296 6.8945C13.4271 6.9458 13.4938 6.97146 13.5964 6.88423C14.2839 6.28907 15.0843 5.9761 15.9924 5.98123C16.6132 5.98123 17.2392 5.96071 17.8497 6.03254C19.4044 6.21211 20.7486 7.56149 20.9282 9.12635C21.0051 9.81387 20.9795 10.5116 21 11.2351C19.1889 11.2351 17.4085 11.2351 15.6128 11.2351C15.6128 11.6507 15.6128 12.0457 15.6128 12.4511C12.2162 12.4511 8.84022 12.4511 5.43342 12.4511C5.43342 12.0509 5.43342 11.6558 5.43342 11.2402C5.32055 11.2402 5.24359 11.2402 5.1615 11.2402C3.5248 11.2402 1.88297 11.2402 0.246274 11.2402C0.164183 11.2402 0.0820914 11.2351 0 11.2351C0.00513071 10.5835 0.00513102 9.94214 0.00513102 9.3008ZM6.69045 11.2094C9.25067 11.2094 11.8109 11.2094 14.3763 11.2094C14.3763 10.9631 14.3865 10.7323 14.3763 10.5014C14.3044 9.24949 13.4527 8.10534 12.247 7.76672C11.1747 7.464 10.0511 7.4794 8.98388 7.72054C7.42414 8.07456 6.48522 9.54707 6.69045 11.2094ZM6.56218 7.78724C6.13633 7.43835 5.67457 7.23825 5.1461 7.21773C4.63303 7.19721 4.12509 7.20747 3.61202 7.20747C3.23235 7.20747 2.8732 7.31521 2.53457 7.49479C1.60078 7.9976 1.11336 9.034 1.25702 9.98832C2.66284 9.98832 4.07378 9.98832 5.48986 9.98832C5.63865 9.15714 5.99267 8.42858 6.56218 7.78724ZM19.7481 9.99344C19.7481 9.819 19.7532 9.67021 19.7481 9.52142C19.6968 8.42858 18.8554 7.40757 17.7779 7.26904C17.0545 7.17669 16.3105 7.21773 15.5768 7.25365C15.1613 7.27417 14.7867 7.4794 14.4635 7.76159C15.0176 8.37727 15.3819 9.07505 15.5307 9.88057C15.5563 10.0088 15.6333 9.99858 15.7256 9.99858C17.0186 9.99858 18.3166 9.99858 19.6096 9.99858C19.6455 10.0037 19.6865 9.99858 19.7481 9.99344Z" fill="#2F4858"/>
<path d="M10.5026 6.07359C9.29172 6.00689 8.43489 5.41686 7.92695 4.32402C7.37796 3.14396 7.66015 1.67657 8.58881 0.794091C9.71757 -0.278227 11.385 -0.262835 12.4933 0.830007C13.9812 2.29739 13.5759 4.87814 11.7134 5.79654C11.3337 5.98124 10.9284 6.07359 10.5026 6.07359ZM10.6411 4.84735C10.7745 4.80631 11.0259 4.76526 11.2311 4.65239C12.1598 4.14445 12.4522 2.87203 11.8571 1.98955C11.2465 1.08654 10.1178 0.973666 9.37894 1.74327C8.86587 2.27174 8.72734 3.185 9.06084 3.86226C9.36355 4.46255 9.8407 4.80631 10.6411 4.84735Z" fill="#2F4858"/>
<path d="M16.7056 5.66813C15.6641 5.62196 14.9407 5.16532 14.4738 4.31363C13.9402 3.34392 14.0787 2.11255 14.8021 1.27111C15.7359 0.178272 17.347 0.106443 18.3577 1.13258C19.0812 1.86628 19.3069 2.76928 19.0401 3.75438C18.7887 4.68817 18.1833 5.32437 17.229 5.58091C17.0391 5.63735 16.839 5.64761 16.7056 5.66813ZM17.9267 3.06173C17.8908 2.88729 17.8754 2.70771 17.819 2.54353C17.6497 2.06637 17.3265 1.73801 16.8134 1.65592C16.3208 1.57896 15.936 1.78419 15.6487 2.18438C15.3101 2.65128 15.2896 3.33366 15.6077 3.82621C15.8283 4.16997 16.1361 4.39572 16.5568 4.4265C17.2854 4.47781 17.8908 3.86212 17.9267 3.06173Z" fill="#2F4858"/>
<path d="M4.39179 5.66832C3.27842 5.61188 2.52934 5.09368 2.08297 4.13423C1.59042 3.06705 1.888 1.73819 2.76022 0.999368C3.88385 0.0501867 5.48463 0.265677 6.34659 1.48679C7.40351 2.98495 6.65956 5.13472 4.92538 5.58622C4.73554 5.6324 4.54058 5.64779 4.39179 5.66832ZM3.07319 3.09783C3.09372 3.19531 3.10911 3.37489 3.17068 3.53907C3.33486 3.99057 3.6427 4.30868 4.12499 4.40103C4.57136 4.48825 4.9459 4.33946 5.24348 4.00083C5.71551 3.46211 5.71551 2.63607 5.25888 2.08195C4.82277 1.55349 4.06855 1.48679 3.56574 1.93316C3.23738 2.22561 3.09372 2.59502 3.07319 3.09783Z" fill="#2F4858"/>
</svg>
