<svg width="504" height="800" viewBox="0 0 504 800" fill="none" xmlns="http://www.w3.org/2000/svg">
<path d="M504 800L504 0L-3.05176e-05 -2.20305e-05L-6.54867e-05 800L504 800Z" fill="url(#paint0_radial_531_123)"/>
<rect opacity="0.11" y="102" width="504" height="75" fill="#004202"/>
<rect opacity="0.11" y="227" width="504" height="75" fill="#004202"/>
<rect opacity="0.11" y="352" width="504" height="75" fill="#004202"/>
<rect opacity="0.11" y="477" width="504" height="75" fill="#004202"/>
<rect opacity="0.11" y="602" width="504" height="75" fill="#004202"/>
<path d="M8.90164 782.248L8.90167 17.7543L493.988 17.7543L493.988 782.248L8.90164 782.248ZM13.352 21.083L13.352 777.81L490.65 777.81L490.65 21.083L13.352 21.083Z" fill="white"/>
<path d="M134.622 782.247L134.622 687.934L368.265 687.934L368.265 782.247L134.622 782.247ZM139.073 691.262L139.073 778.918L364.927 778.918L364.927 691.262L139.073 691.262Z" fill="white"/>
<path d="M219.178 793.344L219.178 777.81L284.82 777.81L284.82 793.344L219.178 793.344ZM222.516 782.248L222.516 790.015L280.37 790.015L280.37 782.248L222.516 782.248Z" fill="white"/>
<path d="M173.689 399.5C173.689 356.486 209.317 321 252.502 321C295.687 321 331.315 356.486 331.315 399.5C331.315 442.514 295.687 478 252.502 478C208.237 478 173.689 443.589 173.689 399.5ZM326.996 399.5C326.996 358.637 293.528 325.301 252.502 325.301C211.476 325.301 178.008 358.637 178.008 399.5C178.008 440.363 211.476 473.699 252.502 473.699C293.528 474.774 326.996 441.438 326.996 399.5Z" fill="white"/>
<path d="M244.767 399.443C244.767 396.115 248.105 392.786 251.443 392.786C254.78 392.786 258.118 396.115 258.118 399.443C258.118 402.772 254.78 406.101 251.443 406.101C248.105 406.101 244.767 403.882 244.767 399.443Z" fill="white"/>
<path d="M492.874 401.663L492.874 398.334L11.1256 398.334L11.1256 401.663L492.874 401.663Z" fill="white"/>
<path d="M134.622 112.068L134.622 17.7543L368.265 17.7543L368.265 112.068L134.622 112.068ZM139.073 21.083L139.073 108.739L364.927 108.739L364.927 21.083L139.073 21.083Z" fill="white"/>
<path d="M219.178 21.0827L219.178 6.65832L284.821 6.65833L284.821 22.1923L219.178 22.1923L219.178 21.0827ZM222.516 9.98703L222.516 17.754L280.37 17.754L280.37 9.98704L222.516 9.98703Z" fill="white"/>
<defs>
<radialGradient id="paint0_radial_531_123" cx="0" cy="0" r="1" gradientUnits="userSpaceOnUse" gradientTransform="translate(251.902 399.949) rotate(90) scale(739.906 699.721)">
<stop stop-color="#82D748"/>
<stop offset="0.3505" stop-color="#529D2D"/>
<stop offset="0.7898" stop-color="#195A0E"/>
<stop offset="0.9963" stop-color="#034002"/>
</radialGradient>
</defs>
</svg>
