<svg width="18" height="18" viewBox="0 0 18 18" fill="none" xmlns="http://www.w3.org/2000/svg">
<path d="M9.00033 16.072C8.85247 16.072 8.70396 16.0212 8.58375 15.919C8.42817 15.7866 4.76375 12.6403 3.23499 9.20861C3.09034 8.8846 3.23627 8.50401 3.56093 8.36001C3.88429 8.216 4.26488 8.3613 4.40953 8.68595C5.5275 11.1964 7.99487 13.6355 8.9894 14.5554C10.7445 12.8518 14.1434 9.04468 14.1434 6.57666C14.1434 3.65927 11.8361 1.28576 9.00033 1.28576C6.16459 1.28576 3.85729 3.65927 3.85729 6.57666C3.85729 6.93153 3.56928 7.21954 3.21441 7.21954C2.85954 7.21954 2.57153 6.93153 2.57153 6.57666C2.57153 2.95018 5.45549 0 9.00033 0C12.5452 0 15.4291 2.95018 15.4291 6.57666C15.4291 10.3774 9.67921 15.6792 9.43428 15.9036C9.31149 16.0154 9.15591 16.072 9.00033 16.072Z" fill="#2F4858"/>
<path d="M9.00023 9.00046C7.58204 9.00046 6.42871 7.84713 6.42871 6.42894C6.42871 5.01075 7.58204 3.85742 9.00023 3.85742C10.4184 3.85742 11.5718 5.01075 11.5718 6.42894C11.5718 7.84713 10.4184 9.00046 9.00023 9.00046ZM9.00023 5.14318C8.29113 5.14318 7.71447 5.71984 7.71447 6.42894C7.71447 7.13804 8.29113 7.7147 9.00023 7.7147C9.70933 7.7147 10.286 7.13804 10.286 6.42894C10.286 5.71984 9.70933 5.14318 9.00023 5.14318Z" fill="#2F4858"/>
<path d="M17.3578 18.0005H0.642883C0.414017 18.0005 0.201867 17.879 0.0867915 17.6803C-0.028284 17.4817 -0.0289269 17.238 0.0848628 17.0387L2.65638 12.5386C2.83253 12.2307 3.22533 12.1226 3.53327 12.2994C3.84121 12.4756 3.94857 12.8684 3.77242 13.1763L1.75056 16.7147H16.2494L14.2276 13.1763C14.0514 12.8684 14.1588 12.4756 14.4667 12.2994C14.7747 12.122 15.1675 12.2307 15.3436 12.5386L17.9151 17.0387C18.0289 17.238 18.0283 17.4817 17.9132 17.6803C17.7988 17.879 17.5866 18.0005 17.3578 18.0005Z" fill="#2F4858"/>
</svg>
