<svg width="14" height="14" viewBox="0 0 14 14" fill="none" xmlns="http://www.w3.org/2000/svg">
<path d="M7.04042 13.3524C4.93639 13.3524 2.9942 12.3813 1.69941 10.6819C1.61849 10.601 1.61849 10.601 1.53756 10.601H1.45664C1.37572 10.601 1.29479 10.601 1.29479 10.6819L0.242774 11.4911C0.16185 11.4911 0.161849 11.572 0.0809247 11.572C3.07496e-07 11.4911 0 11.4911 0 11.4102L0.161849 7.28306C0.161849 7.12121 0.242773 7.04028 0.404622 7.04028H0.485547L4.53177 8.0923C4.61269 8.0923 4.69362 8.17322 4.69362 8.17322C4.69362 8.25415 4.69361 8.25415 4.61269 8.33507L3.56067 9.14432C3.47975 9.14432 3.47975 9.22524 3.47975 9.30617C3.47975 9.38709 3.47975 9.38709 3.47975 9.46802C3.47975 9.54894 3.47975 9.62986 3.56067 9.62986C4.45084 10.7628 5.82656 11.4102 7.20227 11.4102C9.14446 11.4102 10.9248 10.1963 11.5722 8.33507C11.6531 8.17322 11.734 8.17322 11.815 8.17322L13.4335 8.57784C13.5144 8.57784 13.5953 8.73969 13.5953 8.82062V8.90154C12.5433 11.4911 9.9537 13.3524 7.04042 13.3524Z" fill="#3CB44C"/>
<path d="M13.7572 6.47395H13.6763L9.63005 5.42194C9.54913 5.42194 9.4682 5.34101 9.4682 5.34101C9.4682 5.26008 9.4682 5.26008 9.54913 5.17916L10.6821 4.36992C10.763 4.28899 10.763 4.20807 10.763 4.12714C10.763 4.04622 10.763 3.96529 10.6821 3.96529C9.7919 2.75143 8.41619 2.10403 6.95955 2.10403C5.01736 2.10403 3.23703 3.3179 2.58963 5.17916C2.50871 5.34101 2.42778 5.34101 2.34686 5.34101H2.26593L0.728368 4.93639C0.566519 4.85546 0.485596 4.77454 0.485596 4.69361V4.61269C1.37576 1.86126 3.96535 0 6.87862 0C8.98266 0 11.0058 1.05202 12.3006 2.75143C12.3815 2.83235 12.4624 2.91328 12.5433 2.91328C12.6243 2.91328 12.7052 2.91328 12.7052 2.83235L13.7572 2.02311C13.8381 2.02311 13.8381 1.94218 13.919 1.94218C14 2.02311 14 2.02311 14 2.10403L13.8381 6.23118C14 6.39303 13.919 6.47395 13.7572 6.47395Z" fill="#ED4337"/>
</svg>
