<svg width="20" height="22" viewBox="0 0 20 22" fill="none" xmlns="http://www.w3.org/2000/svg">
<path d="M8.49596 7.06417C8.28704 6.90748 8.13035 6.7682 7.93883 6.66374C7.67768 6.50704 7.39912 6.35035 7.12055 6.2633C6.61566 6.10661 6.21522 6.2633 5.91925 6.69856C5.79738 6.87266 5.71033 7.06417 5.58845 7.2905C5.91925 7.34273 6.19781 7.39496 6.47638 7.42978C6.98127 7.49942 7.38171 7.72576 7.67768 8.12619C7.92142 8.45699 8.16517 8.78778 8.42632 9.13599C8.33927 9.1534 8.28704 9.15339 8.2174 9.1708C7.79955 9.18821 7.38171 9.22304 6.96386 9.22304C6.72012 9.22304 6.5112 9.27527 6.30227 9.39714C4.77018 10.2154 3.9693 11.5212 3.74297 13.21C3.58628 14.4287 3.69074 15.63 4.19564 16.7617C4.70053 17.8759 5.46658 18.7116 6.65048 19.0946C7.25984 19.2861 7.90401 19.321 8.53078 19.1817C9.45352 19.0076 10.3414 19.0946 11.2294 19.3732C11.4905 19.4428 11.7168 19.6169 11.9258 19.791C12.4655 20.2263 12.9878 20.6964 13.5275 21.1316C13.5797 21.1664 13.6494 21.2013 13.719 21.2013C15.0944 21.2883 16.4524 21.358 17.8278 21.4798C18.2631 21.5146 18.5242 21.4102 18.7506 21.062C18.9943 20.679 19.3077 20.3307 19.6037 19.9825C19.6733 19.8955 19.7255 19.8084 19.7778 19.7214C20.0737 19.2861 20.0737 18.8509 19.7778 18.4156C19.447 17.9107 19.0988 17.4058 18.7506 16.9183C17.6537 15.3514 16.6265 13.7323 15.669 12.0783C15.2685 11.3993 14.781 10.7725 14.1891 10.2502C13.1097 9.27527 11.8213 8.94447 10.3937 9.11858C10.237 9.13599 10.0977 9.1708 9.94101 9.1708C9.48834 9.20562 9.2446 8.94447 9.31424 8.49181C9.33165 8.33512 9.40129 8.17842 9.43611 8.02173C9.54057 7.62129 9.66244 7.23827 9.71467 6.82043C9.74949 6.54186 9.71467 6.22848 9.61021 5.98474C8.87899 4.31336 8.13034 2.65939 7.3643 1.00542C7.19019 0.639802 6.78976 0.500521 6.42414 0.674623C6.05853 0.848725 5.90184 1.26657 6.11076 1.6496C6.54602 2.48529 6.99868 3.30356 7.43394 4.13925C7.86919 4.97494 8.2174 5.86287 8.42632 6.78561C8.46114 6.87266 8.46114 6.9423 8.49596 7.06417ZM10.1325 16.6746C10.0455 16.7791 9.97583 16.8487 9.90619 16.9183C9.57539 17.2491 9.26201 17.6148 8.89639 17.9107C8.09552 18.5549 7.17278 18.6071 6.31968 18.1197C5.88443 17.8759 5.53622 17.5103 5.27507 17.0924C4.43938 15.7867 4.26528 14.3765 4.57866 12.8792C4.78758 11.8868 5.25766 11.0511 6.05853 10.4418C6.96386 9.76275 8.04329 9.76275 8.91381 10.494C9.22719 10.7551 9.48834 11.0685 9.71467 11.3993C11.1249 13.6104 12.5003 15.8389 13.8931 18.0674C14.1543 18.4679 14.398 18.8857 14.6418 19.2861C14.311 19.6866 13.9976 20.0696 13.6668 20.47C12.4829 19.1991 11.3164 17.9456 10.1325 16.6746ZM19.1162 18.8161C19.064 18.8335 19.0465 18.8335 19.0291 18.8335C17.9149 18.8335 16.818 18.8335 15.7038 18.8161C15.3904 18.8161 15.1118 18.6594 14.9377 18.3808C14.311 17.371 13.6842 16.3612 13.04 15.3514C13.0226 15.3166 13.0226 15.2818 13.0052 15.2296C14.1195 15.1947 15.2163 15.1773 16.3131 15.1425C16.6091 15.1425 16.8006 15.2644 16.9573 15.4907C17.0792 15.6648 17.2011 15.8563 17.3229 16.0478C17.9323 16.9706 18.5068 17.8759 19.1162 18.8161ZM14.8333 12.4265C13.8931 12.5832 12.9878 12.7051 12.0651 12.5484C10.7767 12.3569 9.7669 11.3297 9.57539 10.0413C9.5928 10.0239 9.61021 10.0239 9.62762 10.0065C10.4285 9.95427 11.2294 9.88462 12.0476 9.86721C12.7092 9.86721 13.2838 10.1806 13.7364 10.6681C14.1891 11.2078 14.5025 11.7997 14.8333 12.4265ZM14.398 14.6898C14.7114 14.1501 15.0074 13.6452 15.3208 13.1229C15.669 13.6104 15.9998 14.0805 16.348 14.568C15.6864 14.6202 15.077 14.655 14.398 14.6898ZM19.0465 19.7214L19.0814 19.7562C18.8028 20.087 18.5417 20.4178 18.2631 20.7486C18.1934 20.8182 18.0716 20.8705 17.9845 20.8705C16.9399 20.8182 15.8779 20.7486 14.8333 20.679C14.694 20.679 14.5547 20.6615 14.4154 20.6441C14.4503 20.5919 14.4851 20.5745 14.5373 20.5745C15.6167 20.3133 16.7136 20.3482 17.8104 20.5223C17.9845 20.5571 18.1064 20.5223 18.2283 20.4004C18.5068 20.1741 18.7854 19.9477 19.0465 19.7214Z" fill="#2F4858"/>
<path d="M6.25007 9.06627C6.44159 9.1185 6.6331 9.01404 6.8072 8.89216C7.01612 8.75288 7.08576 8.50914 7.01612 8.28281C6.94648 8.03906 6.54605 7.70827 6.3023 7.70827C5.24028 7.69086 4.45682 7.18597 3.88228 6.33287C3.01177 5.04451 2.17608 3.75615 1.32298 2.4678C1.25334 2.38075 1.20111 2.27628 1.14888 2.18923C0.974779 1.92808 0.765855 1.82362 0.522112 1.87585C0.243548 1.94549 -0.00019455 2.18923 -0.00019455 2.48521C-0.00019455 2.65931 0.0346284 2.86823 0.121679 3.02493C0.887729 4.24364 1.63637 5.46235 2.43724 6.64625C3.01177 7.51676 3.70818 8.24799 4.66574 8.70066C5.15323 8.92699 5.65813 9.03145 6.25007 9.06627Z" fill="#2F4858"/>
<path d="M19.7953 4.76611C19.7082 4.92281 19.6037 5.07949 19.5167 5.23619C18.6114 6.76828 17.6886 8.30039 16.7833 9.81508C16.6962 9.95436 16.644 10.0762 16.8181 10.1807C16.9574 10.2677 17.0967 10.2155 17.1837 10.0414C18.0542 8.3178 18.9247 6.59419 19.7953 4.87058C19.8127 4.83576 19.8127 4.81834 19.8301 4.78352L19.7953 4.76611Z" fill="#2F4858"/>
<path d="M16.2435 3.7041C16.1739 4.5572 16.1042 5.42771 16.0346 6.28081C15.9475 7.23837 15.8779 8.19593 15.7908 9.1535C15.7734 9.31019 15.8082 9.41465 15.9649 9.46688C16.139 9.51911 16.2435 9.41465 16.2609 9.18832C16.2609 8.50932 16.2783 7.83032 16.2783 7.15132C16.2783 6.05448 16.2783 4.97505 16.2783 3.8782C16.2783 3.82597 16.2783 3.77374 16.2609 3.72151L16.2435 3.7041Z" fill="#2F4858"/>
<path d="M13.5276 4.01758C13.9629 5.70637 14.3981 7.37775 14.816 9.06654C14.8334 9.11877 14.8508 9.18841 14.8682 9.24064C14.903 9.41474 15.0249 9.46697 15.1816 9.43215C15.3557 9.37992 15.3383 9.25805 15.3035 9.11877C14.816 7.69114 14.3285 6.24609 13.841 4.81845C13.7539 4.5573 13.6495 4.27873 13.5624 4.01758H13.5276Z" fill="#2F4858"/>
<path d="M5.13589 15.2817C5.11848 15.8737 5.51891 16.6745 6.42424 17.1794C7.15547 17.5799 7.93893 17.4928 8.53088 16.9009C9.67995 15.7344 10.2893 13.5929 8.77462 11.8693C8.46124 11.5037 8.0608 11.26 7.59073 11.1729C6.87691 11.0336 6.25014 11.3122 5.88453 11.9738C5.36222 12.8443 5.17071 13.8367 5.13589 15.2817ZM5.48409 14.8639C5.5015 14.5853 5.51891 14.3068 5.53632 14.0456C5.60596 13.3492 5.84971 12.705 6.25014 12.1305C6.47647 11.8171 6.77245 11.5734 7.17288 11.5559C7.69519 11.5385 8.16526 11.7126 8.51347 12.1131C9.17506 12.8965 9.33175 13.8193 9.22728 14.8117C9.14023 15.4732 8.89649 16.0652 8.3916 16.5353C7.92152 16.9705 7.3818 17.1794 6.77245 16.9357C6.12827 16.692 5.64078 16.2567 5.53632 15.5081C5.5015 15.3166 5.5015 15.0728 5.48409 14.8639Z" fill="#2F4858"/>
</svg>
